Results
version=1
nRows=12
nColumns=24
inDegrees=yes
endheader
time	pelvis_tilt	pelvis_list	pelvis_rotation	pelvis_tx	pelvis_ty	pelvis_tz	hip_flexion_r	hip_adduction_r	hip_rotation_r	knee_angle_r	ankle_angle_r	subtalar_angle_r	mtp_angle_r	hip_flexion_l	hip_adduction_l	hip_rotation_l	knee_angle_l	ankle_angle_l	subtalar_angle_l	mtp_angle_l	lumbar_extension	lumbar_bending	lumbar_rotation
      1.49766667	     -8.83303557	      5.38655882	     -2.52416655	      0.39123748	      0.89105404	      0.34233592	     21.33595052	     -8.08721036	     -7.01859070	    -68.46590107	      5.28732252	      2.54144461	      8.91913477	     23.30153932	      7.93000097	     -5.87723144	    -22.80578933	      8.80155775	     -6.29925100	      4.36127110	      6.28331517	     -9.25945429	      6.10567753
      1.50183333	     -8.80999305	      5.29332704	     -2.36232886	      0.39604863	      0.89221824	      0.34210269	     21.97229669	     -7.96434941	     -7.10068743	    -68.14320290	      5.84878860	      2.44922974	      8.46959263	     22.67687924	      7.94470830	     -5.63472683	    -22.30154310	      8.77519335	     -6.28657320	      4.41872570	      6.22091436	     -9.18707348	      5.74198693
      1.50600000	     -8.74473729	      5.16280478	     -2.19630448	      0.40085588	      0.89343110	      0.34188684	     22.53607418	     -7.80044822	     -7.19603059	    -67.74606752	      6.39654122	      2.38460061	      8.40339957	     22.02064682	      7.90828311	     -5.42806666	    -21.83954564	      8.85141168	     -6.12724079	      4.43250515	      6.09302533	     -9.08012674	      5.62796634
      1.51016667	     -8.64778854	      5.05081902	     -2.02800358	      0.40571673	      0.89469016	      0.34162303	     23.04572476	     -7.67666050	     -7.30334573	    -67.28627884	      6.87825485	      2.36833083	      8.27274503	     21.29976025	      7.90278963	     -5.18686583	    -21.31080112	      8.88471523	     -6.05951221	      4.45087127	      5.94596344	     -8.97807961	      5.28238247
      1.51433333	     -8.58591786	      4.91927681	     -1.82934165	      0.41049598	      0.89584593	      0.34134892	     23.58259590	     -7.52956364	     -7.42823329	    -66.78448742	      7.36048654	      2.26654564	      8.18772586	     20.64548017	      7.87489698	     -4.91619156	    -20.83285816	      8.89470992	     -5.96341980	      4.46295519	      5.81160762	     -8.87225318	      5.04503314
      1.51850000	     -8.49341292	      4.78800893	     -1.63375776	      0.41530543	      0.89704026	      0.34105202	     24.06674223	     -7.39405035	     -7.55935259	    -66.21780372	      7.77139558	      2.19043116	      8.08311400	     19.93852996	      7.84981831	     -4.62964279	    -20.31335222	      8.91209592	     -5.91732033	      4.47528967	      5.65707051	     -8.75238153	      4.71239513
      1.52266667	     -8.39489481	      4.66042088	     -1.43008262	      0.42014289	      0.89820939	      0.34072206	     24.52635605	     -7.27748119	     -7.70877777	    -65.60164239	      8.14411170	      2.09709081	      7.93915741	     19.21814004	      7.82939091	     -4.33662159	    -19.78052493	      8.92202301	     -5.91250423	      4.48803961	      5.52274800	     -8.62944197	      4.33177907
      1.52683333	     -8.30369324	      4.51604082	     -1.20920682	      0.42492521	      0.89933167	      0.34039839	     24.97784504	     -7.13710733	     -7.85886093	    -64.93107159	      8.49358115	      1.97033320	      7.81254491	     18.52164987	      7.78710317	     -4.01624192	    -19.27309251	      8.92792035	     -5.87177339	      4.49819128	      5.36096444	     -8.50319425	      4.02187564
      1.53100000	     -8.22001835	      4.39341924	     -0.97819860	      0.42971881	      0.90039603	      0.34003122	     25.42699661	     -7.03981915	     -8.02714336	    -64.22570705	      8.82633059	      1.82467195	      7.57109121	     17.82432988	      7.77229296	     -3.66877835	    -18.74087896	      8.88619195	     -5.90754090	      4.51043924	      5.23081796	     -8.39492638	      3.58527435
      1.53516667	     -8.12132729	      4.22130525	     -0.73265075	      0.43449441	      0.90145984	      0.33967483	     25.82693719	     -6.88855017	     -8.21899002	    -63.44128062	      9.10848842	      1.65147423	      7.49369960	     17.13791429	      7.68893461	     -3.35800307	    -18.26977777	      8.91860429	     -5.80444250	      4.51595104	      5.06392978	     -8.22343411	      3.40657015
      1.53933333	     -8.01373759	      4.09625017	     -0.50514209	      0.43927314	      0.90248294	      0.33930993	     26.22238145	     -6.78907818	     -8.37363575	    -62.63691012	      9.33107564	      1.45798259	      7.28025393	     16.41087327	      7.66176728	     -2.99182656	    -17.72196832	      8.89590149	     -5.86898598	      4.52132953	      4.89121686	     -8.10713571	      2.90258725
      1.54350000	     -7.90657491	      3.94675404	     -0.25957603	      0.44405161	      0.90347356	      0.33893715	     26.58920348	     -6.67101269	     -8.55657768	    -61.76824724	      9.52628852	      1.23516233	      7.05767561	     15.70141642	      7.59936947	     -2.63877866	    -17.21093574	      8.89034007	     -5.87689936	      4.52570492	      4.72586725	     -7.96549671	      2.54953459
